<svg width="390" height="844" viewBox="0 0 390 844" fill="none" xmlns="http://www.w3.org/2000/svg">
<mask id="mask0_174_324" style="mask-type:alpha" maskUnits="userSpaceOnUse" x="0" y="0" width="390" height="844">
<rect width="390" height="844" fill="#D9D9D9"/>
</mask>
<g mask="url(#mask0_174_324)">
<path d="M0 163.24L0 0.601151C0 0.601151 37.7805 -100 65 -100C92.2195 -100 130 0.601151 130 0.601151V163.24C130 163.24 92.2195 62.6386 65 62.6386C37.7805 62.6386 0 163.24 0 163.24Z" fill="#E1CDF0"/>
<path d="M0 163.24L0 0.601151C0 0.601151 37.7805 -100 65 -100C92.2195 -100 130 0.601151 130 0.601151V163.24C130 163.24 92.2195 62.6386 65 62.6386C37.7805 62.6386 0 163.24 0 163.24Z" fill="#E1CDF0"/>
<path d="M0 163.24L0 0.601151C0 0.601151 37.7805 -100 65 -100C92.2195 -100 130 0.601151 130 0.601151V163.24C130 163.24 92.2195 62.6386 65 62.6386C37.7805 62.6386 0 163.24 0 163.24Z" fill="#E1CDF0"/>
<path d="M0 163.24L0 0.601151C0 0.601151 37.7805 -100 65 -100C92.2195 -100 130 0.601151 130 0.601151V163.24C130 163.24 92.2195 62.6386 65 62.6386C37.7805 62.6386 0 163.24 0 163.24Z" fill="#E1CDF0"/>
<path d="M260 162.24V-0.398847C260 -0.398847 297.78 -101 325 -101C352.22 -101 390 -0.398847 390 -0.398847V162.24C390 162.24 352.22 61.6386 325 61.6386C297.78 61.6386 260 162.24 260 162.24Z" fill="#E1CDF0"/>
<path d="M260 162.24V-0.398847C260 -0.398847 297.78 -101 325 -101C352.22 -101 390 -0.398847 390 -0.398847V162.24C390 162.24 352.22 61.6386 325 61.6386C297.78 61.6386 260 162.24 260 162.24Z" fill="#E1CDF0"/>
<path d="M260 162.24V-0.398847C260 -0.398847 297.78 -101 325 -101C352.22 -101 390 -0.398847 390 -0.398847V162.24C390 162.24 352.22 61.6386 325 61.6386C297.78 61.6386 260 162.24 260 162.24Z" fill="#E1CDF0"/>
<path d="M260 162.24V-0.398847C260 -0.398847 297.78 -101 325 -101C352.22 -101 390 -0.398847 390 -0.398847V162.24C390 162.24 352.22 61.6386 325 61.6386C297.78 61.6386 260 162.24 260 162.24Z" fill="#E1CDF0"/>
<path d="M260 -6.24988V156.389C260 156.389 222.22 256.99 195 256.99C167.78 256.99 130 156.389 130 156.389V-6.24988C130 -6.24988 167.78 94.3513 195 94.3513C222.22 94.3513 260 -6.24988 260 -6.24988Z" fill="#E1CDF0"/>
<path d="M0 320.595L0 157.048C0 157.048 37.7805 55.8848 65 55.8848C92.2195 55.8848 130 157.048 130 157.048V320.595C130 320.595 92.2195 219.432 65 219.432C37.7805 219.432 0 320.595 0 320.595Z" fill="#BEE1F4"/>
<path d="M0 320.595L0 157.048C0 157.048 37.7805 55.8848 65 55.8848C92.2195 55.8848 130 157.048 130 157.048V320.595C130 320.595 92.2195 219.432 65 219.432C37.7805 219.432 0 320.595 0 320.595Z" fill="#BEE1F4"/>
<path d="M0 320.595L0 157.048C0 157.048 37.7805 55.8848 65 55.8848C92.2195 55.8848 130 157.048 130 157.048V320.595C130 320.595 92.2195 219.432 65 219.432C37.7805 219.432 0 320.595 0 320.595Z" fill="#BEE1F4"/>
<path d="M0 320.595L0 157.048C0 157.048 37.7805 55.8848 65 55.8848C92.2195 55.8848 130 157.048 130 157.048V320.595C130 320.595 92.2195 219.432 65 219.432C37.7805 219.432 0 320.595 0 320.595Z" fill="#F2C6D8"/>
<path d="M260 319.595V156.048C260 156.048 297.78 54.8848 325 54.8848C352.22 54.8848 390 156.048 390 156.048V319.595C390 319.595 352.22 218.432 325 218.432C297.78 218.432 260 319.595 260 319.595Z" fill="#BEE1F4"/>
<path d="M260 319.595V156.048C260 156.048 297.78 54.8848 325 54.8848C352.22 54.8848 390 156.048 390 156.048V319.595C390 319.595 352.22 218.432 325 218.432C297.78 218.432 260 319.595 260 319.595Z" fill="#BEE1F4"/>
<path d="M260 319.595V156.048C260 156.048 297.78 54.8848 325 54.8848C352.22 54.8848 390 156.048 390 156.048V319.595C390 319.595 352.22 218.432 325 218.432C297.78 218.432 260 319.595 260 319.595Z" fill="#BEE1F4"/>
<path d="M260 319.595V156.048C260 156.048 297.78 54.8848 325 54.8848C352.22 54.8848 390 156.048 390 156.048V319.595C390 319.595 352.22 218.432 325 218.432C297.78 218.432 260 319.595 260 319.595Z" fill="#F2C6D8"/>
<path d="M260 155.635V318.274C260 318.274 222.22 418.875 195 418.875C167.78 418.875 130 318.274 130 318.274V155.635C130 155.635 167.78 256.237 195 256.237C222.22 256.237 260 155.635 260 155.635Z" fill="#BEE1F4"/>
<path d="M260 155.635V318.274C260 318.274 222.22 418.875 195 418.875C167.78 418.875 130 318.274 130 318.274V155.635C130 155.635 167.78 256.237 195 256.237C222.22 256.237 260 155.635 260 155.635Z" fill="#BEE1F4"/>
<path d="M260 155.635V318.274C260 318.274 222.22 418.875 195 418.875C167.78 418.875 130 318.274 130 318.274V155.635C130 155.635 167.78 256.237 195 256.237C222.22 256.237 260 155.635 260 155.635Z" fill="#BEE1F4"/>
<path d="M260 155.635V318.274C260 318.274 222.22 418.875 195 418.875C167.78 418.875 130 318.274 130 318.274V155.635C130 155.635 167.78 256.237 195 256.237C222.22 256.237 260 155.635 260 155.635Z" fill="#F2C6D8"/>
<path d="M0 476.48L0 312.933C0 312.933 37.7805 211.77 65 211.77C92.2195 211.77 130 312.933 130 312.933V476.48C130 476.48 92.2195 375.317 65 375.317C37.7805 375.317 0 476.48 0 476.48Z" fill="#BEE1F4"/>
<path d="M0 476.48L0 312.933C0 312.933 37.7805 211.77 65 211.77C92.2195 211.77 130 312.933 130 312.933V476.48C130 476.48 92.2195 375.317 65 375.317C37.7805 375.317 0 476.48 0 476.48Z" fill="#BEE1F4"/>
<path d="M0 476.48L0 312.933C0 312.933 37.7805 211.77 65 211.77C92.2195 211.77 130 312.933 130 312.933V476.48C130 476.48 92.2195 375.317 65 375.317C37.7805 375.317 0 476.48 0 476.48Z" fill="#BEE1F4"/>
<path d="M0 476.48L0 312.933C0 312.933 37.7805 211.77 65 211.77C92.2195 211.77 130 312.933 130 312.933V476.48C130 476.48 92.2195 375.317 65 375.317C37.7805 375.317 0 476.48 0 476.48Z" fill="#F9D2B6"/>
<path d="M260 475.48V311.933C260 311.933 297.78 210.77 325 210.77C352.22 210.77 390 311.933 390 311.933V475.48C390 475.48 352.22 374.317 325 374.317C297.78 374.317 260 475.48 260 475.48Z" fill="#BEE1F4"/>
<path d="M260 475.48V311.933C260 311.933 297.78 210.77 325 210.77C352.22 210.77 390 311.933 390 311.933V475.48C390 475.48 352.22 374.317 325 374.317C297.78 374.317 260 475.48 260 475.48Z" fill="#BEE1F4"/>
<path d="M260 475.48V311.933C260 311.933 297.78 210.77 325 210.77C352.22 210.77 390 311.933 390 311.933V475.48C390 475.48 352.22 374.317 325 374.317C297.78 374.317 260 475.48 260 475.48Z" fill="#BEE1F4"/>
<path d="M260 475.48V311.933C260 311.933 297.78 210.77 325 210.77C352.22 210.77 390 311.933 390 311.933V475.48C390 475.48 352.22 374.317 325 374.317C297.78 374.317 260 475.48 260 475.48Z" fill="#F9D2B6"/>
<path d="M260 312.52V476.067C260 476.067 222.22 577.23 195 577.23C167.78 577.23 130 476.067 130 476.067V312.52C130 312.52 167.78 413.683 195 413.683C222.22 413.683 260 312.52 260 312.52Z" fill="#BEE1F4"/>
<path d="M260 312.52V476.067C260 476.067 222.22 577.23 195 577.23C167.78 577.23 130 476.067 130 476.067V312.52C130 312.52 167.78 413.683 195 413.683C222.22 413.683 260 312.52 260 312.52Z" fill="#BEE1F4"/>
<path d="M260 312.52V476.067C260 476.067 222.22 577.23 195 577.23C167.78 577.23 130 476.067 130 476.067V312.52C130 312.52 167.78 413.683 195 413.683C222.22 413.683 260 312.52 260 312.52Z" fill="#BEE1F4"/>
<path d="M260 312.52V476.067C260 476.067 222.22 577.23 195 577.23C167.78 577.23 130 476.067 130 476.067V312.52C130 312.52 167.78 413.683 195 413.683C222.22 413.683 260 312.52 260 312.52Z" fill="#F9D2B6"/>
<path d="M0 632.365L0 469.726C0 469.726 37.7805 369.125 65 369.125C92.2195 369.125 130 469.726 130 469.726V632.365C130 632.365 92.2195 531.763 65 531.763C37.7805 531.763 0 632.365 0 632.365Z" fill="#BEE1F4"/>
<path d="M0 632.365L0 469.726C0 469.726 37.7805 369.125 65 369.125C92.2195 369.125 130 469.726 130 469.726V632.365C130 632.365 92.2195 531.763 65 531.763C37.7805 531.763 0 632.365 0 632.365Z" fill="#BEE1F4"/>
<path d="M0 632.365L0 469.726C0 469.726 37.7805 369.125 65 369.125C92.2195 369.125 130 469.726 130 469.726V632.365C130 632.365 92.2195 531.763 65 531.763C37.7805 531.763 0 632.365 0 632.365Z" fill="#BEE1F4"/>
<path d="M0 632.365L0 469.726C0 469.726 37.7805 369.125 65 369.125C92.2195 369.125 130 469.726 130 469.726V632.365C130 632.365 92.2195 531.763 65 531.763C37.7805 531.763 0 632.365 0 632.365Z" fill="#BEE1F4"/>
<path d="M260 631.365V468.726C260 468.726 297.78 368.125 325 368.125C352.22 368.125 390 468.726 390 468.726V631.365C390 631.365 352.22 530.763 325 530.763C297.78 530.763 260 631.365 260 631.365Z" fill="#BEE1F4"/>
<path d="M260 631.365V468.726C260 468.726 297.78 368.125 325 368.125C352.22 368.125 390 468.726 390 468.726V631.365C390 631.365 352.22 530.763 325 530.763C297.78 530.763 260 631.365 260 631.365Z" fill="#BEE1F4"/>
<path d="M260 631.365V468.726C260 468.726 297.78 368.125 325 368.125C352.22 368.125 390 468.726 390 468.726V631.365C390 631.365 352.22 530.763 325 530.763C297.78 530.763 260 631.365 260 631.365Z" fill="#BEE1F4"/>
<path d="M260 631.365V468.726C260 468.726 297.78 368.125 325 368.125C352.22 368.125 390 468.726 390 468.726V631.365C390 631.365 352.22 530.763 325 530.763C297.78 530.763 260 631.365 260 631.365Z" fill="#BEE1F4"/>
<path d="M260 468.405V631.952C260 631.952 222.22 733.115 195 733.115C167.78 733.115 130 631.952 130 631.952V468.405C130 468.405 167.78 569.568 195 569.568C222.22 569.568 260 468.405 260 468.405Z" fill="#BEE1F4"/>
<path d="M260 468.405V631.952C260 631.952 222.22 733.115 195 733.115C167.78 733.115 130 631.952 130 631.952V468.405C130 468.405 167.78 569.568 195 569.568C222.22 569.568 260 468.405 260 468.405Z" fill="#BEE1F4"/>
<path d="M260 468.405V631.952C260 631.952 222.22 733.115 195 733.115C167.78 733.115 130 631.952 130 631.952V468.405C130 468.405 167.78 569.568 195 569.568C222.22 569.568 260 468.405 260 468.405Z" fill="#BEE1F4"/>
<path d="M260 468.405V631.952C260 631.952 222.22 733.115 195 733.115C167.78 733.115 130 631.952 130 631.952V468.405C130 468.405 167.78 569.568 195 569.568C222.22 569.568 260 468.405 260 468.405Z" fill="#BEE1F4"/>
<path d="M0 788.25L0 625.611C0 625.611 37.7805 525.01 65 525.01C92.2195 525.01 130 625.611 130 625.611V788.25C130 788.25 92.2195 687.649 65 687.649C37.7805 687.649 0 788.25 0 788.25Z" fill="#B7EEB5"/>
<path d="M260 787.25V624.611C260 624.611 297.78 524.01 325 524.01C352.22 524.01 390 624.611 390 624.611V787.25C390 787.25 352.22 686.649 325 686.649C297.78 686.649 260 787.25 260 787.25Z" fill="#B7EEB5"/>
<path d="M260 624.76V787.399C260 787.399 222.22 888 195 888C167.78 888 130 787.399 130 787.399V624.76C130 624.76 167.78 725.361 195 725.361C222.22 725.361 260 624.76 260 624.76Z" fill="#BEE1F4"/>
<path d="M260 624.76V787.399C260 787.399 222.22 888 195 888C167.78 888 130 787.399 130 787.399V624.76C130 624.76 167.78 725.361 195 725.361C222.22 725.361 260 624.76 260 624.76Z" fill="#BEE1F4"/>
<path d="M260 624.76V787.399C260 787.399 222.22 888 195 888C167.78 888 130 787.399 130 787.399V624.76C130 624.76 167.78 725.361 195 725.361C222.22 725.361 260 624.76 260 624.76Z" fill="#BEE1F4"/>
<path d="M260 624.76V787.399C260 787.399 222.22 888 195 888C167.78 888 130 787.399 130 787.399V624.76C130 624.76 167.78 725.361 195 725.361C222.22 725.361 260 624.76 260 624.76Z" fill="#B7EEB5"/>
<path d="M0 945L0 782.361C0 782.361 37.7805 681.76 65 681.76C92.2195 681.76 130 782.361 130 782.361V945C130 945 92.2195 844.399 65 844.399C37.7805 844.399 0 945 0 945Z" fill="#FFEDBD"/>
<path d="M260 944V781.361C260 781.361 297.78 680.76 325 680.76C352.22 680.76 390 781.361 390 781.361V944C390 944 352.22 843.399 325 843.399C297.78 843.399 260 944 260 944Z" fill="#FFEDBD"/>
<path d="M260 -162V0.638596C260 0.638596 222.22 101.24 195 101.24C167.78 101.24 130 0.638596 130 0.638596V-162C130 -162 167.78 -61.3988 195 -61.3988C222.22 -61.3988 260 -162 260 -162Z" fill="#FFEDBD"/>
<path d="M260 782V944.639C260 944.639 222.22 1045.24 195 1045.24C167.78 1045.24 130 944.639 130 944.639V782C130 782 167.78 882.601 195 882.601C222.22 882.601 260 782 260 782Z" fill="#BEE1F4"/>
<path d="M260 782V944.639C260 944.639 222.22 1045.24 195 1045.24C167.78 1045.24 130 944.639 130 944.639V782C130 782 167.78 882.601 195 882.601C222.22 882.601 260 782 260 782Z" fill="#BEE1F4"/>
<path d="M260 782V944.639C260 944.639 222.22 1045.24 195 1045.24C167.78 1045.24 130 944.639 130 944.639V782C130 782 167.78 882.601 195 882.601C222.22 882.601 260 782 260 782Z" fill="#BEE1F4"/>
<path d="M260 782V944.639C260 944.639 222.22 1045.24 195 1045.24C167.78 1045.24 130 944.639 130 944.639V782C130 782 167.78 882.601 195 882.601C222.22 882.601 260 782 260 782Z" fill="#FFEDBD"/>
</g>
</svg>
