<svg width="390" height="844" viewBox="0 0 390 844" fill="none" xmlns="http://www.w3.org/2000/svg">
<mask id="mask0_102_1065" style="mask-type:alpha" maskUnits="userSpaceOnUse" x="0" y="0" width="390" height="844">
<rect width="390" height="844" fill="#D9D9D9"/>
</mask>
<g mask="url(#mask0_102_1065)">
<path d="M8.05005 206.5H90.0697C90.0697 206.5 140.803 269.128 140.803 314.25C140.803 359.372 90.0697 422 90.0697 422H8.05005C8.05005 422 58.7838 359.372 58.7838 314.25C58.7838 269.128 8.05005 206.5 8.05005 206.5Z" fill="#8ADE63"/>
<path d="M-71 206.5H11.0196C11.0196 206.5 61.7534 269.128 61.7534 314.25C61.7534 359.372 11.0196 422 11.0196 422H-71C-71 422 -20.2662 359.372 -20.2662 314.25C-20.2662 269.128 -71 206.5 -71 206.5Z" fill="#FFEDBD"/>
<path d="M86.6641 206.5H168.684C168.684 206.5 219.417 269.128 219.417 314.25C219.417 359.372 168.684 422 168.684 422H86.6641C86.6641 422 137.398 359.372 137.398 314.25C137.398 269.128 86.6641 206.5 86.6641 206.5Z" fill="#70C4E8"/>
<path d="M86.6641 206.5H168.684C168.684 206.5 219.417 269.128 219.417 314.25C219.417 359.372 168.684 422 168.684 422H86.6641C86.6641 422 137.398 359.372 137.398 314.25C137.398 269.128 86.6641 206.5 86.6641 206.5Z" fill="#70C4E8"/>
<path d="M86.6641 206.5H168.684C168.684 206.5 219.417 269.128 219.417 314.25C219.417 359.372 168.684 422 168.684 422H86.6641C86.6641 422 137.398 359.372 137.398 314.25C137.398 269.128 86.6641 206.5 86.6641 206.5Z" fill="#70C4E8"/>
<path d="M86.6641 206.5H168.684C168.684 206.5 219.417 269.128 219.417 314.25C219.417 359.372 168.684 422 168.684 422H86.6641C86.6641 422 137.398 359.372 137.398 314.25C137.398 269.128 86.6641 206.5 86.6641 206.5Z" fill="#BEE1F4"/>
<path d="M165.278 206.5H247.755C247.755 206.5 298.773 269.128 298.773 314.25C298.773 359.372 247.755 422 247.755 422H165.278C165.278 422 216.295 359.372 216.295 314.25C216.295 269.128 165.278 206.5 165.278 206.5Z" fill="#70C4E8"/>
<path d="M165.278 206.5H247.755C247.755 206.5 298.773 269.128 298.773 314.25C298.773 359.372 247.755 422 247.755 422H165.278C165.278 422 216.295 359.372 216.295 314.25C216.295 269.128 165.278 206.5 165.278 206.5Z" fill="#70C4E8"/>
<path d="M165.278 206.5H247.755C247.755 206.5 298.773 269.128 298.773 314.25C298.773 359.372 247.755 422 247.755 422H165.278C165.278 422 216.295 359.372 216.295 314.25C216.295 269.128 165.278 206.5 165.278 206.5Z" fill="#70C4E8"/>
<path d="M165.278 206.5H247.755C247.755 206.5 298.773 269.128 298.773 314.25C298.773 359.372 247.755 422 247.755 422H165.278C165.278 422 216.295 359.372 216.295 314.25C216.295 269.128 165.278 206.5 165.278 206.5Z" fill="#FDBE5B"/>
<path d="M243.891 206.5H326.369C326.369 206.5 377.386 269.128 377.386 314.25C377.386 359.372 326.369 422 326.369 422H243.891C243.891 422 294.908 359.372 294.908 314.25C294.908 269.128 243.891 206.5 243.891 206.5Z" fill="#70C4E8"/>
<path d="M243.891 206.5H326.369C326.369 206.5 377.386 269.128 377.386 314.25C377.386 359.372 326.369 422 326.369 422H243.891C243.891 422 294.908 359.372 294.908 314.25C294.908 269.128 243.891 206.5 243.891 206.5Z" fill="#70C4E8"/>
<path d="M243.891 206.5H326.369C326.369 206.5 377.386 269.128 377.386 314.25C377.386 359.372 326.369 422 326.369 422H243.891C243.891 422 294.908 359.372 294.908 314.25C294.908 269.128 243.891 206.5 243.891 206.5Z" fill="#70C4E8"/>
<path d="M243.891 206.5H326.369C326.369 206.5 377.386 269.128 377.386 314.25C377.386 359.372 326.369 422 326.369 422H243.891C243.891 422 294.908 359.372 294.908 314.25C294.908 269.128 243.891 206.5 243.891 206.5Z" fill="#F2C6D9"/>
<path d="M323.246 206.5H405.266C405.266 206.5 456 269.128 456 314.25C456 359.372 405.266 422 405.266 422H323.246C323.246 422 373.98 359.372 373.98 314.25C373.98 269.128 323.246 206.5 323.246 206.5Z" fill="#70C4E8"/>
<path d="M323.246 206.5H405.266C405.266 206.5 456 269.128 456 314.25C456 359.372 405.266 422 405.266 422H323.246C323.246 422 373.98 359.372 373.98 314.25C373.98 269.128 323.246 206.5 323.246 206.5Z" fill="#70C4E8"/>
<path d="M323.246 206.5H405.266C405.266 206.5 456 269.128 456 314.25C456 359.372 405.266 422 405.266 422H323.246C323.246 422 373.98 359.372 373.98 314.25C373.98 269.128 323.246 206.5 323.246 206.5Z" fill="#70C4E8"/>
<path d="M323.246 206.5H405.266C405.266 206.5 456 269.128 456 314.25C456 359.372 405.266 422 405.266 422H323.246C323.246 422 373.98 359.372 373.98 314.25C373.98 269.128 323.246 206.5 323.246 206.5Z" fill="#BF8DDE"/>
<path d="M8.05005 637.5H90.0697C90.0697 637.5 140.803 700.128 140.803 745.25C140.803 790.372 90.0697 853 90.0697 853H8.05005C8.05005 853 58.7838 790.372 58.7838 745.25C58.7838 700.128 8.05005 637.5 8.05005 637.5Z" fill="#8ADE63"/>
<path d="M-71 637.5H11.0196C11.0196 637.5 61.7534 700.128 61.7534 745.25C61.7534 790.372 11.0196 853 11.0196 853H-71C-71 853 -20.2662 790.372 -20.2662 745.25C-20.2662 700.128 -71 637.5 -71 637.5Z" fill="#FFEDBD"/>
<path d="M86.6641 637.5H168.684C168.684 637.5 219.417 700.128 219.417 745.25C219.417 790.372 168.684 853 168.684 853H86.6641C86.6641 853 137.398 790.372 137.398 745.25C137.398 700.128 86.6641 637.5 86.6641 637.5Z" fill="#70C4E8"/>
<path d="M86.6641 637.5H168.684C168.684 637.5 219.417 700.128 219.417 745.25C219.417 790.372 168.684 853 168.684 853H86.6641C86.6641 853 137.398 790.372 137.398 745.25C137.398 700.128 86.6641 637.5 86.6641 637.5Z" fill="#70C4E8"/>
<path d="M86.6641 637.5H168.684C168.684 637.5 219.417 700.128 219.417 745.25C219.417 790.372 168.684 853 168.684 853H86.6641C86.6641 853 137.398 790.372 137.398 745.25C137.398 700.128 86.6641 637.5 86.6641 637.5Z" fill="#70C4E8"/>
<path d="M86.6641 637.5H168.684C168.684 637.5 219.417 700.128 219.417 745.25C219.417 790.372 168.684 853 168.684 853H86.6641C86.6641 853 137.398 790.372 137.398 745.25C137.398 700.128 86.6641 637.5 86.6641 637.5Z" fill="#BEE1F4"/>
<path d="M165.278 637.5H247.755C247.755 637.5 298.773 700.128 298.773 745.25C298.773 790.372 247.755 853 247.755 853H165.278C165.278 853 216.295 790.372 216.295 745.25C216.295 700.128 165.278 637.5 165.278 637.5Z" fill="#70C4E8"/>
<path d="M165.278 637.5H247.755C247.755 637.5 298.773 700.128 298.773 745.25C298.773 790.372 247.755 853 247.755 853H165.278C165.278 853 216.295 790.372 216.295 745.25C216.295 700.128 165.278 637.5 165.278 637.5Z" fill="#70C4E8"/>
<path d="M165.278 637.5H247.755C247.755 637.5 298.773 700.128 298.773 745.25C298.773 790.372 247.755 853 247.755 853H165.278C165.278 853 216.295 790.372 216.295 745.25C216.295 700.128 165.278 637.5 165.278 637.5Z" fill="#70C4E8"/>
<path d="M165.278 637.5H247.755C247.755 637.5 298.773 700.128 298.773 745.25C298.773 790.372 247.755 853 247.755 853H165.278C165.278 853 216.295 790.372 216.295 745.25C216.295 700.128 165.278 637.5 165.278 637.5Z" fill="#FDBE5B"/>
<path d="M243.891 637.5H326.369C326.369 637.5 377.386 700.128 377.386 745.25C377.386 790.372 326.369 853 326.369 853H243.891C243.891 853 294.908 790.372 294.908 745.25C294.908 700.128 243.891 637.5 243.891 637.5Z" fill="#70C4E8"/>
<path d="M243.891 637.5H326.369C326.369 637.5 377.386 700.128 377.386 745.25C377.386 790.372 326.369 853 326.369 853H243.891C243.891 853 294.908 790.372 294.908 745.25C294.908 700.128 243.891 637.5 243.891 637.5Z" fill="#70C4E8"/>
<path d="M243.891 637.5H326.369C326.369 637.5 377.386 700.128 377.386 745.25C377.386 790.372 326.369 853 326.369 853H243.891C243.891 853 294.908 790.372 294.908 745.25C294.908 700.128 243.891 637.5 243.891 637.5Z" fill="#70C4E8"/>
<path d="M243.891 637.5H326.369C326.369 637.5 377.386 700.128 377.386 745.25C377.386 790.372 326.369 853 326.369 853H243.891C243.891 853 294.908 790.372 294.908 745.25C294.908 700.128 243.891 637.5 243.891 637.5Z" fill="#F2C6D9"/>
<path d="M323.246 637.5H405.266C405.266 637.5 456 700.128 456 745.25C456 790.372 405.266 853 405.266 853H323.246C323.246 853 373.98 790.372 373.98 745.25C373.98 700.128 323.246 637.5 323.246 637.5Z" fill="#70C4E8"/>
<path d="M323.246 637.5H405.266C405.266 637.5 456 700.128 456 745.25C456 790.372 405.266 853 405.266 853H323.246C323.246 853 373.98 790.372 373.98 745.25C373.98 700.128 323.246 637.5 323.246 637.5Z" fill="#70C4E8"/>
<path d="M323.246 637.5H405.266C405.266 637.5 456 700.128 456 745.25C456 790.372 405.266 853 405.266 853H323.246C323.246 853 373.98 790.372 373.98 745.25C373.98 700.128 323.246 637.5 323.246 637.5Z" fill="#70C4E8"/>
<path d="M323.246 637.5H405.266C405.266 637.5 456 700.128 456 745.25C456 790.372 405.266 853 405.266 853H323.246C323.246 853 373.98 790.372 373.98 745.25C373.98 700.128 323.246 637.5 323.246 637.5Z" fill="#BF8DDE"/>
<path d="M8.05005 -9H90.0697C90.0697 -9 140.803 53.6284 140.803 98.75C140.803 143.872 90.0697 206.5 90.0697 206.5H8.05005C8.05005 206.5 58.7838 143.872 58.7838 98.75C58.7838 53.6284 8.05005 -9 8.05005 -9Z" fill="#B7EEB5"/>
<path d="M-71 -9H11.0196C11.0196 -9 61.7534 53.6284 61.7534 98.75C61.7534 143.872 11.0196 206.5 11.0196 206.5H-71C-71 206.5 -20.2662 143.872 -20.2662 98.75C-20.2662 53.6284 -71 -9 -71 -9Z" fill="#FCD529"/>
<path d="M86.6641 -9H168.684C168.684 -9 219.417 53.6284 219.417 98.75C219.417 143.872 168.684 206.5 168.684 206.5H86.6641C86.6641 206.5 137.398 143.872 137.398 98.75C137.398 53.6284 86.6641 -9 86.6641 -9Z" fill="#BEE1F4"/>
<path d="M86.6641 -9H168.684C168.684 -9 219.417 53.6284 219.417 98.75C219.417 143.872 168.684 206.5 168.684 206.5H86.6641C86.6641 206.5 137.398 143.872 137.398 98.75C137.398 53.6284 86.6641 -9 86.6641 -9Z" fill="#BEE1F4"/>
<path d="M86.6641 -9H168.684C168.684 -9 219.417 53.6284 219.417 98.75C219.417 143.872 168.684 206.5 168.684 206.5H86.6641C86.6641 206.5 137.398 143.872 137.398 98.75C137.398 53.6284 86.6641 -9 86.6641 -9Z" fill="#BEE1F4"/>
<path d="M86.6641 -9H168.684C168.684 -9 219.417 53.6284 219.417 98.75C219.417 143.872 168.684 206.5 168.684 206.5H86.6641C86.6641 206.5 137.398 143.872 137.398 98.75C137.398 53.6284 86.6641 -9 86.6641 -9Z" fill="#70C4E8"/>
<path d="M165.278 -9H247.755C247.755 -9 298.773 53.6284 298.773 98.75C298.773 143.872 247.755 206.5 247.755 206.5H165.278C165.278 206.5 216.295 143.872 216.295 98.75C216.295 53.6284 165.278 -9 165.278 -9Z" fill="#BEE1F4"/>
<path d="M165.278 -9H247.755C247.755 -9 298.773 53.6284 298.773 98.75C298.773 143.872 247.755 206.5 247.755 206.5H165.278C165.278 206.5 216.295 143.872 216.295 98.75C216.295 53.6284 165.278 -9 165.278 -9Z" fill="#BEE1F4"/>
<path d="M165.278 -9H247.755C247.755 -9 298.773 53.6284 298.773 98.75C298.773 143.872 247.755 206.5 247.755 206.5H165.278C165.278 206.5 216.295 143.872 216.295 98.75C216.295 53.6284 165.278 -9 165.278 -9Z" fill="#BEE1F4"/>
<path d="M165.278 -9H247.755C247.755 -9 298.773 53.6284 298.773 98.75C298.773 143.872 247.755 206.5 247.755 206.5H165.278C165.278 206.5 216.295 143.872 216.295 98.75C216.295 53.6284 165.278 -9 165.278 -9Z" fill="#F9D2B6"/>
<path d="M243.891 -9H326.369C326.369 -9 377.386 53.6284 377.386 98.75C377.386 143.872 326.369 206.5 326.369 206.5H243.891C243.891 206.5 294.908 143.872 294.908 98.75C294.908 53.6284 243.891 -9 243.891 -9Z" fill="#BEE1F4"/>
<path d="M243.891 -9H326.369C326.369 -9 377.386 53.6284 377.386 98.75C377.386 143.872 326.369 206.5 326.369 206.5H243.891C243.891 206.5 294.908 143.872 294.908 98.75C294.908 53.6284 243.891 -9 243.891 -9Z" fill="#BEE1F4"/>
<path d="M243.891 -9H326.369C326.369 -9 377.386 53.6284 377.386 98.75C377.386 143.872 326.369 206.5 326.369 206.5H243.891C243.891 206.5 294.908 143.872 294.908 98.75C294.908 53.6284 243.891 -9 243.891 -9Z" fill="#BEE1F4"/>
<path d="M243.891 -9H326.369C326.369 -9 377.386 53.6284 377.386 98.75C377.386 143.872 326.369 206.5 326.369 206.5H243.891C243.891 206.5 294.908 143.872 294.908 98.75C294.908 53.6284 243.891 -9 243.891 -9Z" fill="#FA97AF"/>
<path d="M323.246 -9H405.266C405.266 -9 456 53.6284 456 98.75C456 143.872 405.266 206.5 405.266 206.5H323.246C323.246 206.5 373.98 143.872 373.98 98.75C373.98 53.6284 323.246 -9 323.246 -9Z" fill="#BEE1F4"/>
<path d="M323.246 -9H405.266C405.266 -9 456 53.6284 456 98.75C456 143.872 405.266 206.5 405.266 206.5H323.246C323.246 206.5 373.98 143.872 373.98 98.75C373.98 53.6284 323.246 -9 323.246 -9Z" fill="#BEE1F4"/>
<path d="M323.246 -9H405.266C405.266 -9 456 53.6284 456 98.75C456 143.872 405.266 206.5 405.266 206.5H323.246C323.246 206.5 373.98 143.872 373.98 98.75C373.98 53.6284 323.246 -9 323.246 -9Z" fill="#BEE1F4"/>
<path d="M323.246 -9H405.266C405.266 -9 456 53.6284 456 98.75C456 143.872 405.266 206.5 405.266 206.5H323.246C323.246 206.5 373.98 143.872 373.98 98.75C373.98 53.6284 323.246 -9 323.246 -9Z" fill="#E1CDF0"/>
<path d="M8.05005 422H90.0697C90.0697 422 140.803 484.628 140.803 529.75C140.803 574.872 90.0697 637.5 90.0697 637.5H8.05005C8.05005 637.5 58.7838 574.872 58.7838 529.75C58.7838 484.628 8.05005 422 8.05005 422Z" fill="#B7EEB5"/>
<path d="M-71 422H11.0196C11.0196 422 61.7534 484.628 61.7534 529.75C61.7534 574.872 11.0196 637.5 11.0196 637.5H-71C-71 637.5 -20.2662 574.872 -20.2662 529.75C-20.2662 484.628 -71 422 -71 422Z" fill="#FCD529"/>
<path d="M86.6641 422H168.684C168.684 422 219.417 484.628 219.417 529.75C219.417 574.872 168.684 637.5 168.684 637.5H86.6641C86.6641 637.5 137.398 574.872 137.398 529.75C137.398 484.628 86.6641 422 86.6641 422Z" fill="#BEE1F4"/>
<path d="M86.6641 422H168.684C168.684 422 219.417 484.628 219.417 529.75C219.417 574.872 168.684 637.5 168.684 637.5H86.6641C86.6641 637.5 137.398 574.872 137.398 529.75C137.398 484.628 86.6641 422 86.6641 422Z" fill="#BEE1F4"/>
<path d="M86.6641 422H168.684C168.684 422 219.417 484.628 219.417 529.75C219.417 574.872 168.684 637.5 168.684 637.5H86.6641C86.6641 637.5 137.398 574.872 137.398 529.75C137.398 484.628 86.6641 422 86.6641 422Z" fill="#BEE1F4"/>
<path d="M86.6641 422H168.684C168.684 422 219.417 484.628 219.417 529.75C219.417 574.872 168.684 637.5 168.684 637.5H86.6641C86.6641 637.5 137.398 574.872 137.398 529.75C137.398 484.628 86.6641 422 86.6641 422Z" fill="#70C4E8"/>
<path d="M165.278 422H247.755C247.755 422 298.773 484.628 298.773 529.75C298.773 574.872 247.755 637.5 247.755 637.5H165.278C165.278 637.5 216.295 574.872 216.295 529.75C216.295 484.628 165.278 422 165.278 422Z" fill="#BEE1F4"/>
<path d="M165.278 422H247.755C247.755 422 298.773 484.628 298.773 529.75C298.773 574.872 247.755 637.5 247.755 637.5H165.278C165.278 637.5 216.295 574.872 216.295 529.75C216.295 484.628 165.278 422 165.278 422Z" fill="#BEE1F4"/>
<path d="M165.278 422H247.755C247.755 422 298.773 484.628 298.773 529.75C298.773 574.872 247.755 637.5 247.755 637.5H165.278C165.278 637.5 216.295 574.872 216.295 529.75C216.295 484.628 165.278 422 165.278 422Z" fill="#BEE1F4"/>
<path d="M165.278 422H247.755C247.755 422 298.773 484.628 298.773 529.75C298.773 574.872 247.755 637.5 247.755 637.5H165.278C165.278 637.5 216.295 574.872 216.295 529.75C216.295 484.628 165.278 422 165.278 422Z" fill="#F9D2B6"/>
<path d="M243.891 422H326.369C326.369 422 377.386 484.628 377.386 529.75C377.386 574.872 326.369 637.5 326.369 637.5H243.891C243.891 637.5 294.908 574.872 294.908 529.75C294.908 484.628 243.891 422 243.891 422Z" fill="#BEE1F4"/>
<path d="M243.891 422H326.369C326.369 422 377.386 484.628 377.386 529.75C377.386 574.872 326.369 637.5 326.369 637.5H243.891C243.891 637.5 294.908 574.872 294.908 529.75C294.908 484.628 243.891 422 243.891 422Z" fill="#BEE1F4"/>
<path d="M243.891 422H326.369C326.369 422 377.386 484.628 377.386 529.75C377.386 574.872 326.369 637.5 326.369 637.5H243.891C243.891 637.5 294.908 574.872 294.908 529.75C294.908 484.628 243.891 422 243.891 422Z" fill="#BEE1F4"/>
<path d="M243.891 422H326.369C326.369 422 377.386 484.628 377.386 529.75C377.386 574.872 326.369 637.5 326.369 637.5H243.891C243.891 637.5 294.908 574.872 294.908 529.75C294.908 484.628 243.891 422 243.891 422Z" fill="#FA97AF"/>
<path d="M323.246 422H405.266C405.266 422 456 484.628 456 529.75C456 574.872 405.266 637.5 405.266 637.5H323.246C323.246 637.5 373.98 574.872 373.98 529.75C373.98 484.628 323.246 422 323.246 422Z" fill="#BEE1F4"/>
<path d="M323.246 422H405.266C405.266 422 456 484.628 456 529.75C456 574.872 405.266 637.5 405.266 637.5H323.246C323.246 637.5 373.98 574.872 373.98 529.75C373.98 484.628 323.246 422 323.246 422Z" fill="#BEE1F4"/>
<path d="M323.246 422H405.266C405.266 422 456 484.628 456 529.75C456 574.872 405.266 637.5 405.266 637.5H323.246C323.246 637.5 373.98 574.872 373.98 529.75C373.98 484.628 323.246 422 323.246 422Z" fill="#BEE1F4"/>
<path d="M323.246 422H405.266C405.266 422 456 484.628 456 529.75C456 574.872 405.266 637.5 405.266 637.5H323.246C323.246 637.5 373.98 574.872 373.98 529.75C373.98 484.628 323.246 422 323.246 422Z" fill="#E1CDF0"/>
</g>
</svg>
